<mxfile host="app.diagrams.net" modified="2022-07-21T06:48:01.432Z" agent="5.0 (Windows NT 10.0; Win64; x64) AppleWebKit/537.36 (KHTML, like Gecko) Chrome/103.0.5060.114 Safari/537.36 Edg/103.0.1264.62" etag="p3S52ClqZMr_ys4P68Pz" version="20.1.3" type="github">
  <diagram id="Dqg8gI9X4gpdxo1kz8tV" name="Page-1">
    <mxGraphModel dx="528" dy="473" grid="1" gridSize="10" guides="1" tooltips="1" connect="1" arrows="1" fold="1" page="1" pageScale="1" pageWidth="850" pageHeight="1100" math="0" shadow="0">
      <root>
        <mxCell id="0" />
        <mxCell id="1" parent="0" />
        <mxCell id="cBvsEF9ys3iTo3MnXstM-1" value="Display" style="swimlane;fontStyle=0;childLayout=stackLayout;horizontal=1;startSize=26;fillColor=none;horizontalStack=0;resizeParent=1;resizeParentMax=0;resizeLast=0;collapsible=1;marginBottom=0;" vertex="1" parent="1">
          <mxGeometry x="40" y="140" width="140" height="52" as="geometry" />
        </mxCell>
        <mxCell id="cBvsEF9ys3iTo3MnXstM-3" value="updateSPO2()" style="text;strokeColor=none;fillColor=none;align=left;verticalAlign=top;spacingLeft=4;spacingRight=4;overflow=hidden;rotatable=0;points=[[0,0.5],[1,0.5]];portConstraint=eastwest;" vertex="1" parent="cBvsEF9ys3iTo3MnXstM-1">
          <mxGeometry y="26" width="140" height="26" as="geometry" />
        </mxCell>
        <mxCell id="cBvsEF9ys3iTo3MnXstM-5" value="CareTaker" style="swimlane;fontStyle=0;childLayout=stackLayout;horizontal=1;startSize=26;fillColor=none;horizontalStack=0;resizeParent=1;resizeParentMax=0;resizeLast=0;collapsible=1;marginBottom=0;" vertex="1" parent="1">
          <mxGeometry x="290" y="140" width="140" height="52" as="geometry" />
        </mxCell>
        <mxCell id="cBvsEF9ys3iTo3MnXstM-6" value="updateSPO2()" style="text;strokeColor=none;fillColor=none;align=left;verticalAlign=top;spacingLeft=4;spacingRight=4;overflow=hidden;rotatable=0;points=[[0,0.5],[1,0.5]];portConstraint=eastwest;" vertex="1" parent="cBvsEF9ys3iTo3MnXstM-5">
          <mxGeometry y="26" width="140" height="26" as="geometry" />
        </mxCell>
        <mxCell id="cBvsEF9ys3iTo3MnXstM-9" value="PhilipsVitalWatchMonitor" style="swimlane;fontStyle=0;childLayout=stackLayout;horizontal=1;startSize=26;fillColor=none;horizontalStack=0;resizeParent=1;resizeParentMax=0;resizeLast=0;collapsible=1;marginBottom=0;" vertex="1" parent="1">
          <mxGeometry y="306" width="340" height="140" as="geometry" />
        </mxCell>
        <mxCell id="cBvsEF9ys3iTo3MnXstM-10" value="list of subscribers&#xa;&#xa;NotifySP20Change()&#xa;&#xa;" style="text;strokeColor=none;fillColor=none;align=left;verticalAlign=top;spacingLeft=4;spacingRight=4;overflow=hidden;rotatable=0;points=[[0,0.5],[1,0.5]];portConstraint=eastwest;" vertex="1" parent="cBvsEF9ys3iTo3MnXstM-9">
          <mxGeometry y="26" width="340" height="24" as="geometry" />
        </mxCell>
        <mxCell id="cBvsEF9ys3iTo3MnXstM-11" value="attachSub(sub)" style="text;strokeColor=none;fillColor=none;align=left;verticalAlign=top;spacingLeft=4;spacingRight=4;overflow=hidden;rotatable=0;points=[[0,0.5],[1,0.5]];portConstraint=eastwest;" vertex="1" parent="cBvsEF9ys3iTo3MnXstM-9">
          <mxGeometry y="50" width="340" height="36" as="geometry" />
        </mxCell>
        <mxCell id="cBvsEF9ys3iTo3MnXstM-12" value="detachSub(sub)&#xa;monitorChange()&#xa;notifyChange() // for each subs in list call updateSPO2()" style="text;strokeColor=none;fillColor=none;align=left;verticalAlign=top;spacingLeft=4;spacingRight=4;overflow=hidden;rotatable=0;points=[[0,0.5],[1,0.5]];portConstraint=eastwest;" vertex="1" parent="cBvsEF9ys3iTo3MnXstM-9">
          <mxGeometry y="86" width="340" height="54" as="geometry" />
        </mxCell>
        <mxCell id="cBvsEF9ys3iTo3MnXstM-14" value="PhilipsVitalWatchConfig" style="swimlane;fontStyle=0;childLayout=stackLayout;horizontal=1;startSize=26;fillColor=none;horizontalStack=0;resizeParent=1;resizeParentMax=0;resizeLast=0;collapsible=1;marginBottom=0;" vertex="1" parent="1">
          <mxGeometry x="380" y="280" width="140" height="52" as="geometry" />
        </mxCell>
        <mxCell id="cBvsEF9ys3iTo3MnXstM-15" value="ConfiureWatch()" style="text;strokeColor=none;fillColor=none;align=left;verticalAlign=top;spacingLeft=4;spacingRight=4;overflow=hidden;rotatable=0;points=[[0,0.5],[1,0.5]];portConstraint=eastwest;" vertex="1" parent="cBvsEF9ys3iTo3MnXstM-14">
          <mxGeometry y="26" width="140" height="26" as="geometry" />
        </mxCell>
        <mxCell id="cBvsEF9ys3iTo3MnXstM-28" value="" style="endArrow=diamondThin;endFill=0;endSize=24;html=1;rounded=0;exitX=0;exitY=0.5;exitDx=0;exitDy=0;entryX=1;entryY=0.5;entryDx=0;entryDy=0;" edge="1" parent="1" source="cBvsEF9ys3iTo3MnXstM-15" target="cBvsEF9ys3iTo3MnXstM-10">
          <mxGeometry width="160" relative="1" as="geometry">
            <mxPoint x="190" y="350" as="sourcePoint" />
            <mxPoint x="300" y="340" as="targetPoint" />
          </mxGeometry>
        </mxCell>
        <mxCell id="cBvsEF9ys3iTo3MnXstM-33" value="WatchObservers" style="swimlane;fontStyle=3;childLayout=stackLayout;horizontal=1;startSize=26;fillColor=none;horizontalStack=0;resizeParent=1;resizeParentMax=0;resizeLast=0;collapsible=1;marginBottom=0;" vertex="1" parent="1">
          <mxGeometry x="170" y="20" width="140" height="52" as="geometry" />
        </mxCell>
        <mxCell id="cBvsEF9ys3iTo3MnXstM-34" value="updateSPO2()" style="text;strokeColor=none;fillColor=none;align=left;verticalAlign=top;spacingLeft=4;spacingRight=4;overflow=hidden;rotatable=0;points=[[0,0.5],[1,0.5]];portConstraint=eastwest;fontStyle=3" vertex="1" parent="cBvsEF9ys3iTo3MnXstM-33">
          <mxGeometry y="26" width="140" height="26" as="geometry" />
        </mxCell>
        <mxCell id="cBvsEF9ys3iTo3MnXstM-37" value="" style="endArrow=block;dashed=1;endFill=0;endSize=12;html=1;rounded=0;entryX=0.431;entryY=1.092;entryDx=0;entryDy=0;entryPerimeter=0;" edge="1" parent="1" source="cBvsEF9ys3iTo3MnXstM-1" target="cBvsEF9ys3iTo3MnXstM-34">
          <mxGeometry width="160" relative="1" as="geometry">
            <mxPoint x="190" y="210" as="sourcePoint" />
            <mxPoint x="350" y="210" as="targetPoint" />
          </mxGeometry>
        </mxCell>
        <mxCell id="cBvsEF9ys3iTo3MnXstM-38" value="" style="endArrow=block;dashed=1;endFill=0;endSize=12;html=1;rounded=0;entryX=0.511;entryY=1.092;entryDx=0;entryDy=0;entryPerimeter=0;" edge="1" parent="1" source="cBvsEF9ys3iTo3MnXstM-5" target="cBvsEF9ys3iTo3MnXstM-34">
          <mxGeometry width="160" relative="1" as="geometry">
            <mxPoint x="187.99897645854662" y="160" as="sourcePoint" />
            <mxPoint x="240.34000000000003" y="84.39200000000005" as="targetPoint" />
          </mxGeometry>
        </mxCell>
        <mxCell id="cBvsEF9ys3iTo3MnXstM-39" value="" style="endArrow=open;endFill=1;endSize=12;html=1;rounded=0;entryX=0.46;entryY=1.123;entryDx=0;entryDy=0;entryPerimeter=0;" edge="1" parent="1" target="cBvsEF9ys3iTo3MnXstM-34">
          <mxGeometry width="160" relative="1" as="geometry">
            <mxPoint x="160" y="300" as="sourcePoint" />
            <mxPoint x="350" y="210" as="targetPoint" />
            <Array as="points">
              <mxPoint x="200" y="170" />
            </Array>
          </mxGeometry>
        </mxCell>
      </root>
    </mxGraphModel>
  </diagram>
</mxfile>
